<?xml version="1.0" encoding="UTF-8"?>
<svg id="Calque_1" data-name="Calque 1" xmlns="http://www.w3.org/2000/svg" width="144" height="45" viewBox="0 0 144 45">
  <defs>
    <style>
      .cls-1 {
        fill: #4364ce;
      }

      .cls-2 {
        fill: #d45358;
      }
    </style>
  </defs>
  <g>
    <path class="cls-1" d="m0,25.63v-2.9c0-3.33,1.1-5.24,4.95-5.24h3.37c3.85,0,4.95,1.92,4.95,5.24v2.15c0,.38-.22.6-.6.6H3.16v.48c0,1.65.43,2.04,1.87,2.04h6.58c.38,0,.6.22.6.6v1.75c0,.38-.22.6-.6.6h-6.66c-3.85,0-4.95-1.89-4.95-5.31h0Zm10.12-2.56v-.63c0-1.63-.41-2.01-1.87-2.01h-3.23c-1.46,0-1.87.38-1.87,2.01v.63h6.96Z"/>
    <path class="cls-1" d="m28.61,30.94h-2.64c-.31,0-.55-.09-.74-.35l-3.45-4.33-3.45,4.33c-.19.26-.43.35-.74.35h-2.64c-.5,0-.67-.34-.34-.74l5.22-6.2-4.83-5.77c-.34-.38-.17-.74.34-.74h2.65c.31,0,.55.09.74.36l3.04,3.88,3.04-3.88c.19-.26.43-.36.74-.36h2.64c.5,0,.67.36.36.74l-4.81,5.77,5.2,6.2c.34.38.17.74-.34.74h0Z"/>
    <path class="cls-1" d="m31.98,25.86v-5.53h-1.01c-.38,0-.6-.21-.6-.6v-1.65c0-.38.21-.6.6-.6,1.67-.03,1.93-.26,1.96-2.8,0-.43.22-.64.6-.64h.98c.38,0,.6.22.6.6v2.85h4.88c.38,0,.6.22.6.6v1.65c0,.38-.21.6-.6.6h-4.88v5.86c0,1.44.48,1.87,2.18,1.87h2.7c.38,0,.6.22.6.6v1.67c0,.38-.21.6-.6.6h-2.7c-4.33,0-5.31-1.72-5.31-5.08h0Z"/>
    <path class="cls-1" d="m51.75,17.49c.38,0,.6.22.6.6v1.75c0,.38-.21.6-.6.6h-3.45c-1.29,0-1.87.34-1.87,2.04v7.87c0,.38-.22.6-.6.6h-1.96c-.38,0-.6-.22-.6-.6v-12.25c0-.38.22-.6.6-.6h1.96c.38,0,.6.22.6.6v.95c.57-1.01,1.63-1.55,3.47-1.55h1.84Z"/>
    <path class="cls-1" d="m53.43,27.14c0-2.73,1.03-3.73,4.28-4.07l5.03-.5c.57-.08.77-.35.77-.86,0-.98-.43-1.27-1.67-1.27h-6.73c-.38,0-.6-.22-.6-.6v-1.75c0-.38.22-.6.6-.6h6.8c3.45,0,4.77,1.22,4.77,3.95v8.91c0,.38-.22.6-.6.6h-1.96c-.38,0-.6-.22-.6-.6v-1.12c-.63,1.15-1.58,1.72-3.66,1.72h-1.39c-3.21,0-5.03-1.1-5.03-3.8h-.02Zm7.94.95c1.58,0,2.13-.52,2.13-2.06v-1.15l-5.26.52c-1.27.12-1.63.48-1.63,1.41,0,.86.63,1.27,1.82,1.27h2.95Z"/>
  </g>
  <g>
    <path class="cls-2" d="m74.21,30.48l-5.65-12.3c-.19-.43-.03-.69.43-.69h2.18c.34,0,.55.14.69.46l4.38,9.89,4.36-9.89c.14-.31.36-.46.69-.46h2.22c.46,0,.63.26.43.69l-5.69,12.3c-.14.29-.38.46-.72.46h-2.61c-.34,0-.57-.17-.72-.46h0Z"/>
    <path class="cls-2" d="m86.25,30.34v-12.25c0-.38.22-.6.6-.6h1.96c.38,0,.6.22.6.6v12.25c0,.38-.22.6-.6.6h-1.96c-.38,0-.6-.22-.6-.6Z"/>
    <path class="cls-2" d="m92.61,30.34v-1.75c0-.38.22-.6.6-.6h6.58c1.32,0,1.82-.29,1.82-1.12s-.35-1.06-1.63-1.2l-3.68-.41c-2.99-.34-3.97-1.49-3.97-3.97s1.53-3.8,4.81-3.8h6.41c.38,0,.6.22.6.6v1.75c0,.38-.22.6-.6.6h-6.35c-1.2,0-1.75.26-1.75,1.17,0,.79.34,1.03,1.44,1.15l3.62.41c3.35.41,4.28,1.63,4.28,4.05,0,2.7-1.5,3.73-5.03,3.73h-6.56c-.38,0-.6-.22-.6-.6h0Z"/>
    <path class="cls-2" d="m107.47,30.34v-12.25c0-.38.22-.6.6-.6h1.96c.38,0,.6.22.6.6v12.25c0,.38-.22.6-.6.6h-1.96c-.38,0-.6-.22-.6-.6Z"/>
    <path class="cls-2" d="m113.68,25.63v-2.9c0-3.33,1.1-5.24,4.95-5.24h3.97c3.85,0,4.95,1.92,4.95,5.24v2.9c0,3.42-1.1,5.31-4.95,5.31h-3.97c-3.85,0-4.95-1.89-4.95-5.31Zm8.85,2.37c1.44,0,1.87-.38,1.87-2.04v-3.51c0-1.63-.41-2.01-1.87-2.01h-3.83c-1.46,0-1.87.38-1.87,2.01v3.51c0,1.65.43,2.04,1.87,2.04h3.83Z"/>
    <path class="cls-2" d="m144,22.8v7.54c0,.38-.21.6-.6.6h-1.96c-.38,0-.6-.22-.6-.6v-7.87c0-1.65-.43-2.04-1.87-2.04h-3.35c-1.29,0-1.87.34-1.87,2.04v7.87c0,.38-.22.6-.6.6h-1.96c-.38,0-.6-.22-.6-.6v-12.25c0-.38.22-.6.6-.6h1.96c.38,0,.6.22.6.6v.95c.57-1.01,1.63-1.55,3.47-1.55h1.82c3.83,0,4.95,1.89,4.95,5.31h0Z"/>
    <rect class="cls-1" x="119.04" y="22.57" width="3.16" height="3.3" rx=".6" ry=".6"/>
  </g>
</svg>